<svg xmlns="http://www.w3.org/2000/svg" viewBox="0 0 288 288">
  <g style="isolation: isolate">
    <g id="ARTBOARD_1" data-name="ARTBOARD 1">
      <g>
        <circle cx="145.27" cy="145.27" r="142.73" fill="#fafbfb"/>
        <g>
          <circle cx="55.47" cy="94.18" r="22.47" fill="#e0e0e0"/>
          <path d="M34.92,96.1A22.47,22.47,0,0,1,72.29,79.29,22.46,22.46,0,1,0,40.58,111,22.37,22.37,0,0,1,34.92,96.1Z" fill="#bdbdbd"/>
          <path d="M56.36,71.71h-.45A22.47,22.47,0,1,1,33,94.62c0,.15,0,.3,0,.45A23.36,23.36,0,1,0,56.36,71.71Z" fill="#f5f5f5"/>
        </g>
        <g>
          <circle cx="204.69" cy="54.82" r="11.23" fill="#e0e0e0"/>
          <path d="M194.42,55.78a11.23,11.23,0,0,1,18.68-8.41,11.23,11.23,0,1,0-15.86,15.85A11.21,11.21,0,0,1,194.42,55.78Z" fill="#bdbdbd"/>
          <path d="M205.13,43.58h-.22A11.23,11.23,0,1,1,193.46,55v.22a11.68,11.68,0,1,0,11.67-11.68Z" fill="#f5f5f5"/>
        </g>
        <g>
          <circle cx="244" cy="168.75" r="28.03" fill="#e0e0e0"/>
          <path d="M218.37,171.15a28,28,0,0,1,46.61-21,28,28,0,1,0-39.56,39.56A27.89,27.89,0,0,1,218.37,171.15Z" fill="#bdbdbd"/>
          <path d="M245.11,140.72h-.56A28,28,0,1,1,216,169.3c0,.19,0,.37,0,.56a29.14,29.14,0,1,0,29.14-29.14Z" fill="#f5f5f5"/>
        </g>
        <g>
          <circle cx="169.09" cy="234.24" r="28.03" fill="#e0e0e0"/>
          <path d="M143.46,236.64a28,28,0,0,1,46.61-21,28,28,0,1,0-39.56,39.56A27.94,27.94,0,0,1,143.46,236.64Z" fill="#bdbdbd"/>
          <path d="M170.2,206.21h-.55a28,28,0,1,1-28.58,28.57c0,.19,0,.37,0,.56a29.14,29.14,0,1,0,29.14-29.14Z" fill="#f5f5f5"/>
        </g>
        <path d="M143.33,185.82h-.18a9.55,9.55,0,1,1-9.74,9.74c0,.06,0,.12,0,.19a9.94,9.94,0,1,0,9.93-9.94Z" fill="#f5f5f5"/>
        <g>
          <circle cx="269.89" cy="129.15" r="10.81" fill="#e0e0e0"/>
          <path d="M260,130.07A10.8,10.8,0,0,1,278,122a10.8,10.8,0,1,0-15.25,15.25A10.74,10.74,0,0,1,260,130.07Z" fill="#bdbdbd"/>
          <path d="M270.32,118.34h-.22a10.81,10.81,0,1,1-11,11c0,.07,0,.14,0,.22a11.24,11.24,0,1,0,11.24-11.24Z" fill="#f5f5f5"/>
        </g>
        <g>
          <path d="M84.11,142.52a14.25,14.25,0,1,1-14.25-14.24A14.25,14.25,0,0,1,84.11,142.52Z" fill="#e0e0e0"/>
          <path d="M56.83,143.74a14.25,14.25,0,0,1,23.7-10.66,14.25,14.25,0,1,0-20.11,20.11A14.2,14.2,0,0,1,56.83,143.74Z" fill="#bdbdbd"/>
          <path d="M70.43,128.28h-.29A14.25,14.25,0,1,1,55.62,142.8v.29a14.81,14.81,0,1,0,14.81-14.81Z" fill="#f5f5f5"/>
        </g>
        <g>
          <circle cx="102.28" cy="90.55" r="11.94" transform="translate(-34.07 98.85) rotate(-45)" fill="#e0e0e0"/>
          <path d="M91.37,91.57a11.93,11.93,0,0,1,19.85-8.93A11.93,11.93,0,1,0,94.37,99.48,11.85,11.85,0,0,1,91.37,91.57Z" fill="#bdbdbd"/>
          <path d="M102.75,78.61h-.23A11.94,11.94,0,1,1,90.35,90.79V91a12.41,12.41,0,1,0,12.4-12.41Z" fill="#f5f5f5"/>
        </g>
        <g>
          <circle cx="80.77" cy="225.56" r="8.05" transform="translate(-135.83 123.18) rotate(-45)" fill="#e0e0e0"/>
          <path d="M73.41,226.24a8,8,0,0,1,13.39-6,8.05,8.05,0,1,0-11.37,11.36A8.06,8.06,0,0,1,73.41,226.24Z" fill="#bdbdbd"/>
          <path d="M81.09,217.51h-.16a8.05,8.05,0,1,1-8.2,8.2.92.92,0,0,0,0,.16,8.37,8.37,0,1,0,8.37-8.36Z" fill="#f5f5f5"/>
        </g>
        <path d="M145.27,227.13a154.55,154.55,0,0,1-142.2-94q-.51,6-.52,12.12a142.73,142.73,0,1,0,285.45,0q0-6.12-.52-12.12A154.55,154.55,0,0,1,145.27,227.13Z" fill="#212121" opacity="0.1" style="mix-blend-mode: multiply"/>
        <path d="M145.27,259.62A159,159,0,0,1,6.35,178.09a142.75,142.75,0,0,0,277.85,0A159.05,159.05,0,0,1,145.27,259.62Z" fill="#212121" opacity="0.1" style="mix-blend-mode: multiply"/>
      </g>
    </g>
  </g>
</svg>